<?xml version="1.0" encoding="utf-8"?>
<!-- Generator: Adobe Illustrator 15.0.0, SVG Export Plug-In . SVG Version: 6.00 Build 0)  -->
<!DOCTYPE svg PUBLIC "-//W3C//DTD SVG 1.1//EN" "http://www.w3.org/Graphics/SVG/1.1/DTD/svg11.dtd">
<svg version="1.1" id="レイヤー_1" xmlns="http://www.w3.org/2000/svg" xmlns:xlink="http://www.w3.org/1999/xlink" x="0px"
	 y="0px" width="411.388px" height="30.391px" viewBox="0 0 411.388 30.391" enable-background="new 0 0 411.388 30.391"
	 xml:space="preserve">
<g>
	<defs>
		<rect id="SVGID_1_" y="0" width="411.388" height="30.391"/>
	</defs>
	<clipPath id="SVGID_2_">
		<use xlink:href="#SVGID_1_"  overflow="visible"/>
	</clipPath>
	<path clip-path="url(#SVGID_2_)" fill="#252831" d="M18.38,5.916c-0.172-0.561-1.111-0.98-1.836-0.98
		c-0.267,0-1.56,0.454-2.182,0.67l-0.397,0.138c-1.149,0.35-1.933,0.544-2.488,0.675l-0.138-0.056L11.384,6.2
		c0.096-0.346,0.187-0.673,0.497-1.35l0.138-0.293c0.371-0.79,0.418-0.89,0.429-1.097c0.016-0.311-0.102-0.601-0.352-0.864
		C11.418,1.882,9.97,1.549,9.204,1.549c-0.537,0-1.112,0.055-1.745,0.69c1.989,0.598,2.183,1.203,2.124,2.322
		c-0.003,0.06-0.031,0.407-0.064,0.81c-0.046,0.547-0.1,1.198-0.11,1.375L9.405,6.828L9.324,6.84
		C6.293,7.296,4.657,7.345,4.095,7.345C2.129,7.345,1.184,7.02,0,6.559c0.819,1.753,1.616,2.238,4.922,2.238
		c1.114,0,2.494-0.101,4.221-0.308l0.123-0.015L9.177,9.44L9.11,9.46c-2.057,0.578-4.137,1.205-5.437,1.878
		c-0.856,0.209-1.833,0.904-1.868,1.567c-0.014,0.272,0.061,0.489,0.231,0.668c0.425,0.447,1.448,0.656,3.221,0.656
		c1.536,0,2.875-0.123,3.537-0.196l0.115-0.013l-0.005,0.117c-0.124,3.465,0.05,4.377,0.2,5.157l0.024,0.132l-0.134-0.014
		c-0.562-0.061-1.07-0.084-1.754-0.084c-1.458,0-6.224,0.216-6.371,2.984c-0.027,0.537,0.199,1.076,0.657,1.559
		c0.893,0.939,2.499,1.502,4.297,1.502c4.59,0,5.155-2.47,5.398-3.535l0.027-0.118l0.11,0.048c1.18,0.521,2.016,0.958,3.31,1.916
		c0.804,0.604,1.02,0.766,1.491,0.766c0.636,0,0.997-0.572,1.027-1.139c0.038-0.727-0.376-1.133-0.769-1.459
		c-1.905-1.602-4.055-1.902-5.088-2.048l-0.064-0.009l-0.019-0.063c-0.602-2.146-0.596-3.315-0.581-5.646l0.002-0.346l0.083-0.014
		c2.165-0.368,5.003-1.036,5.267-1.118c0.226-0.06,0.53-0.19,0.552-0.608c0.01-0.193-0.056-0.364-0.197-0.513
		c-0.366-0.387-1.15-0.531-1.559-0.531c-0.179,0-1.386,0.354-2.357,0.64c-0.701,0.205-1.346,0.394-1.6,0.451l-0.127,0.028
		l0.006-0.131c0.06-1.138,0.096-1.809,0.169-2.606l0.007-0.07l0.067-0.018c3.471-0.966,5.558-1.63,6.672-2.387
		c0.101-0.028,0.192-0.054,0.253-0.076c0.325-0.124,0.491-0.343,0.508-0.668c0.002-0.038-0.004-0.077-0.012-0.14L18.38,5.916z
		 M9.007,21.175c-0.099,0.702-0.276,1.487-1.124,1.924c-0.977,0.482-2.295,0.653-3.203,0.653c-1.664,0-2.41-0.418-2.743-0.771
		c-0.18-0.188-0.278-0.405-0.268-0.594c0.056-1.07,2.356-1.663,3.925-1.663c1.038,0,2.514,0.036,3.348,0.343l0.077,0.027
		L9.007,21.175z M9.135,9.905c-0.094,1.053-0.11,1.341-0.167,2.441l-0.004,0.082l-0.081,0.011c-1.363,0.205-3.065,0.337-4.336,0.337
		c-0.524,0-0.807-0.062-0.947-0.211c-0.077-0.08-0.11-0.182-0.103-0.313c0.01-0.199,0.062-0.36,0.215-0.591
		c1.21-0.664,3.261-1.287,5.296-1.861l0.139-0.039L9.135,9.905z M11.083,8.911L10.941,8.95l0.083-0.755l0.075-0.013
		c0.922-0.156,2.793-0.503,4.323-0.816l0.054,0.191C14.198,8.028,12.609,8.486,11.083,8.911"/>
	<path clip-path="url(#SVGID_2_)" fill="#252831" d="M49.716,10.376c0.903,1.164,0.969,1.222,1.418,1.222
		c0.59,0,0.935-0.514,0.96-0.997c0.046-0.882-0.78-2.02-4.908-2.514C47.964,8.661,49.095,9.564,49.716,10.376"/>
	<path clip-path="url(#SVGID_2_)" fill="#252831" d="M49.847,6.064c-0.059,0-0.114,0.001-0.168,0.002
		c1.358,0.707,2.532,1.85,2.772,2.09c1.112,1.201,1.119,1.201,1.483,1.201c0.562,0,0.847-0.532,0.873-1.026
		c0.019-0.382-0.112-0.726-0.392-1.021C53.482,6.327,51.104,6.064,49.847,6.064"/>
	<path clip-path="url(#SVGID_2_)" fill="#252831" d="M44.439,10.964c0.01-0.198-0.069-0.388-0.235-0.562
		c-0.318-0.334-0.841-0.509-1.196-0.509c-0.362,0-0.589,0.107-0.95,0.348c-0.889,0.571-1.025,0.659-2.396,1.158l-0.234,0.085
		l0.11-0.223c0.166-0.337,0.393-0.759,0.69-1.295c0.257-0.426,0.858-1.424,0.871-1.662c0.016-0.306-0.157-0.665-0.488-1.014
		c-0.647-0.681-1.725-1.177-2.564-1.177c-0.533,0-1.079,0.149-1.556,0.42c1.535,0.722,1.904,0.932,1.85,1.949
		c-0.044,0.861-0.892,3.333-1.056,3.648c-0.957,0.238-2.95,0.731-4.662,0.731c-0.946,0-1.551-0.166-2.55-0.484
		c0.262,1.016,1.307,1.992,2.903,1.992c1.151,0,2.816-0.335,3.513-0.474l0.183-0.037l-0.071,0.172
		c-2.566,6.213-4.015,8.303-5.415,10.324l-0.076,0.111c-1.331,1.939-1.471,2.143-1.497,2.638c-0.02,0.385,0.085,0.702,0.311,0.941
		c0.264,0.277,0.638,0.382,0.812,0.382c0.768,0,1.1-0.602,1.421-1.18c2.101-3.943,3.731-7.679,5.986-12.849l0.459-0.951
		c2.354-0.552,4.224-1.198,5.408-1.867C44.29,11.427,44.424,11.23,44.439,10.964"/>
	<path clip-path="url(#SVGID_2_)" fill="#252831" d="M48.964,13.964c-0.802,0-3.449,0.11-5.291,1.462
		c0.429-0.064,0.894-0.095,1.687-0.095c0.715,0,2.425,0.05,2.848,0.511c0.078,0.086,0.113,0.183,0.105,0.288
		c-0.02,0.221-0.411,0.592-1.276,1.192c-1.474,0.745-5.369,2.902-6.599,5.371c-0.535,0.645-0.838,1.442-0.889,2.012
		c-0.027,0.31-0.007,1.119,0.757,1.952c0.837,0.913,2.747,2.001,7.095,2.001c2.047,0,3.456-0.298,4.094-0.576
		c0.494-0.196,0.577-0.563,0.59-0.714c0.025-0.277-0.174-0.698-0.491-1.046c-0.241-0.262-0.756-0.704-1.491-0.704
		c-0.269,0-0.519,0.022-1.168,0.148c-1.207,0.202-1.814,0.303-3.242,0.303c-1.096,0-3.375,0-4.451-1.172
		c-0.364-0.396-0.543-0.9-0.556-1.489c0.83-2.638,5.607-5.158,6.841-5.771c0.893-0.276,1.891-0.528,2.573-0.528
		c0.143,0,0.578,0.032,1.023,0.064c0.46,0.033,0.93,0.067,1.093,0.067c0.751,0,1.159-0.308,1.212-0.918
		c0.022-0.253-0.092-0.673-0.478-1.095C52.518,14.757,51.425,13.964,48.964,13.964"/>
	<path clip-path="url(#SVGID_2_)" fill="#252831" d="M91.282,23.486c-0.587-0.369-0.893-0.705-1.057-3.898
		c-0.642,2.093-1.129,2.995-1.649,3.67c-0.701,0.945-1.553,0.945-3.832,0.945c-3.292,0-3.635,0-3.69-1.392
		c-0.008-0.319,0.137-2.915,0.294-5.673l0.038-0.682h2.316l-0.019,0.211c-0.04,0.41-0.077,0.795,0.1,0.99
		c0.123,0.135,0.386,0.208,0.76,0.208c0.715,0,1.485-0.253,1.915-0.629c0.361-0.314,0.385-0.792,0.394-0.95
		c0.021-0.404,0.045-1.568,0.07-2.862c0.025-1.313,0.052-2.663,0.077-3.142c0.109-3.783,0.208-6.121,0.297-6.952l0.017-0.142
		l0.316-0.203c0.262-0.164,0.956-0.601,0.967-0.79c-0.016-0.06-0.22-0.222-0.322-0.302l-2.101-1.593
		C85.83,0.023,85.708,0.001,85.697,0c-0.004,0.001-0.116,0.038-0.43,0.396l-0.964,0.982H71.927l-2.91-1.154
		c0.156,1.572,0.173,2.351,0.009,5.475c-0.136,2.6-0.363,5.753-0.513,7.839l-0.12,1.683c-0.008,0.137-0.053,0.535-0.099,0.945
		c-0.047,0.408-0.095,0.825-0.102,0.978c-0.012,0.235,0.042,0.414,0.164,0.543c0.236,0.249,0.701,0.302,1.049,0.302
		c0.553,0,1.297-0.194,1.711-0.626c0.2-0.206,0.295-0.445,0.285-0.711l-0.008-0.194h7.185l-0.016,0.205
		c-0.192,2.528-0.497,7.543-0.285,8.424c0.344,1.496,1.99,1.629,6.606,1.629c3.229,0,4.941-0.116,5.947-0.78
		c0.438-0.266,1.187-0.893,1.221-1.56C92.072,23.982,92.072,23.982,91.282,23.486 M84.459,1.878l-0.217,4.13H71.957l0.217-4.13
		H84.459z M84.216,6.508l-0.244,4.638H71.687l0.245-4.638H84.216z M83.947,11.646l-0.227,4.311H71.435l0.227-4.311H83.947z"/>
	<path clip-path="url(#SVGID_2_)" fill="#252831" d="M75.957,19.67c-0.024-0.017-2.597-1.592-3.213-1.865
		c-0.061-0.027-0.099-0.036-0.171-0.055c-0.012,0.015-0.028,0.078-0.027,0.148l-0.037,0.742c-0.706,2.74-2.184,6.136-7.339,8.358
		c5.332-0.397,7.629-2.587,10.137-6.666l0.06-0.101l0.252-0.072c0.601-0.171,0.633-0.205,0.638-0.274
		C76.245,19.844,76.102,19.726,75.957,19.67"/>
	<path clip-path="url(#SVGID_2_)" fill="#252831" d="M124.837,22.923l-0.064-0.088l0.046-0.084c0.43-0.794,1.078-1.994,1.19-4.12
		c0.109-2.096-0.488-3.894-1.727-5.2c-1.363-1.436-3.475-2.227-5.944-2.227c-1.07,0-1.898,0.137-2.413,0.223l-0.178,0.03
		l0.068-0.166c1.006-2.423,1.008-2.45,1.021-2.711c0.017-0.335-0.115-0.655-0.396-0.95c-0.598-0.631-1.692-0.962-2.11-0.962
		c-0.705,0-1.311,0.38-1.78,0.752c1.149,0.331,1.776,0.576,1.702,1.981c-0.053,1.021-0.295,1.98-0.41,2.44l-0.032,0.124
		l-0.051,0.018c-2.879,0.982-4.616,2.172-5.671,2.98l-0.126,0.07l-0.037-0.148c-0.372-1.466-0.928-3.655-3.12-4.468
		c0.302,0.535,0.662,1.265,1.048,2.792c0.044,0.195,0.199,0.812,0.354,1.434c0.22,0.883,0.365,1.468,0.346,1.631
		c-2.913,2.69-4.234,5.934-4.293,7.071c-0.034,0.643,0.245,1.175,0.573,1.8c0.043,0.093,0.125,0.312,0.214,0.551
		c0.119,0.32,0.267,0.72,0.322,0.804c0.274,0.363,0.702,0.493,1.012,0.493c1.815,0,3.605-2.046,5.043-3.689l0.085-0.098l0.072,0.106
		c0.438,0.639,1.366,1.721,2.065,1.721c0.01,0,0.938-0.012,0.991-0.997c0.031-0.602-0.122-0.785-1.609-2.563l-0.048-0.058
		l0.042-0.063c2.086-3.135,3.192-5.941,4.363-8.914l0.164-0.285c0.625-0.103,1.306-0.197,2.06-0.197
		c1.854,0,3.329,0.563,4.384,1.675c1.708,1.799,1.713,4.396,1.673,5.149c-0.089,1.7-0.588,2.642-0.753,2.952l-0.039,0.075
		l-0.08-0.024c-1.288-0.404-2.369-0.584-3.506-0.584c-2.918,0-4.522,1.46-4.598,2.901c-0.03,0.58,0.205,1.165,0.662,1.647
		c0.694,0.729,1.772,1.131,3.038,1.131c0.677,0,2.737,0,5.09-2.212l0.053-0.05l0.065,0.036c0.212,0.119,0.304,0.21,1.09,1.085
		c0.461,0.531,1.067,1.141,1.661,1.141c0.499,0,1.079-0.432,1.111-1.052C127.529,24.49,125.713,23.433,124.837,22.923
		 M108.765,22.06c-1.065,1.329-3.07,3.2-4.195,3.2c-0.263,0-0.472-0.078-0.621-0.233c-0.186-0.197-0.27-0.512-0.248-0.936
		c0.12-2.297,1.637-5.046,3.086-6.751l0.117-0.137l0.055,0.172c0.626,1.965,1.169,3.334,1.816,4.576l0.031,0.057L108.765,22.06z
		 M113.506,12.9c-0.585,1.749-2.321,5.536-3.364,7.162l-0.085,0.133l-0.084-0.133c-0.768-1.216-1.365-2.602-1.772-4.115
		l-0.016-0.062l0.046-0.04c1.972-1.73,3.638-2.499,5.145-3.07l0.197-0.074L113.506,12.9z M121.994,23.397
		c-1.353,1.96-3.349,2.171-4.145,2.171c-0.063,0-1.555-0.008-2.204-0.692c-0.213-0.225-0.314-0.5-0.297-0.813
		c0.063-1.229,1.646-1.662,2.982-1.662c1.234,0,2.42,0.277,3.625,0.849l0.106,0.05L121.994,23.397z"/>
	<path clip-path="url(#SVGID_2_)" fill="none" stroke="#252831" stroke-width="0.1" stroke-miterlimit="10" d="M124.837,22.923
		l-0.064-0.088l0.046-0.084c0.43-0.794,1.078-1.994,1.19-4.12c0.109-2.096-0.488-3.894-1.727-5.2
		c-1.363-1.436-3.475-2.227-5.944-2.227c-1.07,0-1.898,0.137-2.413,0.223l-0.178,0.03l0.068-0.166
		c1.006-2.423,1.008-2.45,1.021-2.711c0.017-0.335-0.115-0.655-0.396-0.95c-0.598-0.631-1.692-0.962-2.11-0.962
		c-0.705,0-1.311,0.38-1.78,0.752c1.149,0.331,1.776,0.576,1.702,1.981c-0.053,1.021-0.295,1.98-0.41,2.44l-0.032,0.124
		l-0.051,0.018c-2.879,0.982-4.616,2.172-5.671,2.98l-0.126,0.07l-0.037-0.148c-0.372-1.466-0.928-3.655-3.12-4.468
		c0.302,0.535,0.662,1.265,1.048,2.792c0.044,0.195,0.199,0.812,0.354,1.434c0.22,0.883,0.365,1.468,0.346,1.631
		c-2.913,2.69-4.234,5.934-4.293,7.071c-0.034,0.643,0.245,1.175,0.573,1.8c0.043,0.093,0.125,0.312,0.214,0.551
		c0.119,0.32,0.267,0.72,0.322,0.804c0.274,0.363,0.702,0.493,1.012,0.493c1.815,0,3.605-2.046,5.043-3.689l0.085-0.098l0.072,0.106
		c0.438,0.639,1.366,1.721,2.065,1.721c0.01,0,0.938-0.012,0.991-0.997c0.031-0.602-0.122-0.785-1.609-2.563l-0.048-0.058
		l0.042-0.063c2.086-3.135,3.192-5.941,4.363-8.914l0.164-0.285c0.625-0.103,1.306-0.197,2.06-0.197
		c1.854,0,3.329,0.563,4.384,1.675c1.708,1.799,1.713,4.396,1.673,5.149c-0.089,1.7-0.588,2.642-0.753,2.952l-0.039,0.075
		l-0.08-0.024c-1.288-0.404-2.369-0.584-3.506-0.584c-2.918,0-4.522,1.46-4.598,2.901c-0.03,0.58,0.205,1.165,0.662,1.647
		c0.694,0.729,1.772,1.131,3.038,1.131c0.677,0,2.737,0,5.09-2.212l0.053-0.05l0.065,0.036c0.212,0.119,0.304,0.21,1.09,1.085
		c0.461,0.531,1.067,1.141,1.661,1.141c0.499,0,1.079-0.432,1.111-1.052C127.529,24.49,125.713,23.433,124.837,22.923z
		 M108.765,22.06c-1.065,1.329-3.07,3.2-4.195,3.2c-0.263,0-0.472-0.078-0.621-0.233c-0.186-0.197-0.27-0.512-0.248-0.936
		c0.12-2.297,1.637-5.046,3.086-6.751l0.117-0.137l0.055,0.172c0.626,1.965,1.169,3.334,1.816,4.576l0.031,0.057L108.765,22.06z
		 M113.506,12.9c-0.585,1.749-2.321,5.536-3.364,7.162l-0.085,0.133l-0.084-0.133c-0.768-1.216-1.365-2.602-1.772-4.115
		l-0.016-0.062l0.046-0.04c1.972-1.73,3.638-2.499,5.145-3.07l0.197-0.074L113.506,12.9z M121.994,23.397
		c-1.353,1.96-3.349,2.171-4.145,2.171c-0.063,0-1.555-0.008-2.204-0.692c-0.213-0.225-0.314-0.5-0.297-0.813
		c0.063-1.229,1.646-1.662,2.982-1.662c1.234,0,2.42,0.277,3.625,0.849l0.106,0.05L121.994,23.397z"/>
	<path clip-path="url(#SVGID_2_)" fill="#252831" d="M157.707,5.985c-1.037,0-1.916,0.17-2.62,0.504
		c2.316,0.329,3.429,1.44,3.399,2.005c-0.021,0.382-0.169,0.519-1.34,1.236c-1.415,0.45-2.69,1.075-3.792,1.859l0.176,0.242
		c0.871-0.617,1.893-1.148,3.057-1.579c0.792-0.13,1.083-0.164,1.623-0.164c0.334,0,0.945,0.021,1.288,0.168l0.123,0.059
		c0.763,0.369,0.9,0.436,1.294,0.436c0.118,0,1.16-0.037,1.228-1.313c0.039-0.748-0.255-1.492-0.827-2.094
		C160.497,6.48,159.182,5.985,157.707,5.985"/>
	<path clip-path="url(#SVGID_2_)" fill="#252831" d="M155.048,12.782c-0.577,0-3.669,0.096-7.815,1.983l-0.146,0.066l0.005-0.16
		c0.031-1.137,0.067-2.426,0.278-4.203l0.008-0.065l0.063-0.019c1.289-0.394,2.111-0.707,2.576-0.901
		c1.618-0.627,2.232-0.925,2.267-1.584c0.009-0.173-0.059-0.338-0.204-0.49c-0.279-0.296-0.801-0.494-1.299-0.494
		c-0.499,0-0.723,0.124-1.586,0.65c-0.502,0.304-0.88,0.469-1.36,0.669l-0.172,0.073l0.035-0.183c0.327-1.745,0.44-2.03,1.083-3.218
		c0.058-0.098,0.251-0.562,0.265-0.83c0.009-0.178-0.072-0.359-0.241-0.538c-0.644-0.678-2.298-1.11-2.948-1.11
		c-0.872,0-1.641,0.265-2.137,0.733c1.085,0.377,1.741,0.608,1.972,1.345c0.174,0.627-0.017,4.308-0.026,4.465l-0.004,0.07
		l-0.067,0.02c-1.896,0.568-2.785,0.615-3.47,0.615c-0.99,0-1.42-0.18-2.147-0.648c0.2,1.757,1.709,2.387,2.978,2.387
		c0.685,0,1.507-0.142,2.443-0.421l0.135-0.041l-0.3,4.844c-1.196,0.671-3.25,1.927-5.122,3.075
		c-0.383,0.233-0.593,0.361-0.819,0.361c-0.259,0-0.488-0.143-0.595-0.281c-0.085-0.126-0.189-0.478-0.289-0.831
		c-0.628,0.781-0.731,1.467-0.745,1.734c-0.031,0.603,0.22,1.262,0.655,1.72c0.256,0.271,0.691,0.593,1.304,0.593
		c0.416,0,0.59-0.212,0.908-0.597l0.136-0.164c0.095-0.115,0.23-0.266,0.372-0.426c0.186-0.207,0.385-0.428,0.526-0.607l0.063-0.081
		l0.079,0.064c0.937,0.776,1.626,1.612,2.122,2.584c0.221,0.444,0.737,1.483,1.36,1.483c0.733,0,1.865-1.257,1.969-3.225
		c0.006-0.147-0.026-2.423-0.048-3.928l-0.021-1.516l0.052-0.029c2.341-1.311,4.686-1.976,6.972-1.976
		c1.327,0,2.484,0.416,3.172,1.141c0.563,0.594,0.823,1.378,0.773,2.333c-0.111,2.121-1.834,3.601-4.189,3.601
		c-2.302,0-3.423-1.272-4.207-2.602h-0.05c0.959,4.197,4.503,4.526,5.574,4.526c2.966,0,5.598-2.401,5.747-5.242
		c0.064-1.236-0.283-2.263-1.033-3.053C158.891,13.393,157.122,12.782,155.048,12.782 M145.096,20.414
		c-0.036,0.704-0.158,0.918-0.521,0.918c-0.322,0-1.606-0.511-2.785-0.989l-0.121-0.05l0.08-0.104
		c0.535-0.695,2.422-2.541,3.335-3.129l0.165-0.106C145.249,16.953,145.109,20.183,145.096,20.414"/>
	<path clip-path="url(#SVGID_2_)" fill="#252831" d="M232.107,13.51c-0.392,0-0.704,0.051-0.999,0.162
		c-1.229,0.246-3.5,1.104-4.906,4.094l-0.104,0.073l-0.132,0.065l-0.038-0.105c-0.409-1.124-1.108-2.165-3.435-2.165
		c-1.45,0-2.395,0.366-3.145,0.657l-0.281,0.107l0.16-0.255c0.234-0.373,1.239-1.609,2.047-2.603c0.411-0.505,0.765-0.94,0.99-1.186
		c3.13-0.389,4.867-0.736,6.636-1.322c0.577-0.207,0.867-0.481,0.885-0.841c0.007-0.122-0.077-0.282-0.237-0.45
		c-0.336-0.353-0.995-0.72-1.519-0.72c-0.182,0-0.369,0.046-0.646,0.128c-0.184,0.062-0.635,0.227-1.148,0.415
		c-0.84,0.307-1.793,0.656-2.123,0.754l-0.313,0.094l0.207-0.253c0.934-1.138,1.063-1.281,1.312-1.496
		c0.724-0.679,0.86-0.819,0.882-1.232c0.007-0.143-0.082-0.32-0.251-0.497c-0.44-0.465-1.451-0.965-2.627-0.965
		c-1.405,0-2.121,0.521-2.532,0.901c0.866,0.064,1.552,0.294,1.858,0.629c0.119,0.131,0.178,0.275,0.17,0.419
		c-0.032,0.607-1.082,2.194-1.587,2.956l-0.035,0.054l-0.046,0.006c-1.434,0.172-2.319,0.185-2.557,0.185
		c-1.743,0-2.819-0.286-3.759-1.015c-0.003,0.362,0.082,0.975,0.593,1.541c0.62,0.689,1.673,1.053,3.043,1.053
		c0.472,0,0.78-0.023,1.336-0.079l0.226-0.022l-0.136,0.181c-1.337,1.788-2.531,3.242-4.012,4.53
		c-1.489,1.296-1.684,1.579-1.733,2.531c-0.023,0.438,0.014,1.028,0.32,1.352c0.155,0.163,0.359,0.243,0.626,0.243
		c0.21,0,0.427-0.07,0.595-0.193c0.318-0.232,1.173-1.442,1.583-2.023l0.111-0.157c0.701-0.998,2.173-2.67,4.154-2.67
		c1.763,0,1.937,1.524,2.064,2.636l0.007,0.067l-0.058,0.032c-3.833,2.142-5.828,4.222-5.932,6.184
		c-0.034,0.652,0.175,1.222,0.62,1.692c1.078,1.135,3.516,1.733,7.052,1.733c1.674,0,4.389-0.262,5.185-0.501
		c0.192-0.061,0.825-0.314,0.861-0.997c0.013-0.25-0.146-0.574-0.425-0.869c-0.408-0.431-0.978-0.698-1.486-0.698
		c-0.162,0-1.049,0.102-1.45,0.158c-1.243,0.197-2.877,0.426-4.497,0.426c-1.33,0-3.188-0.095-3.971-0.92
		c-0.27-0.284-0.396-0.635-0.374-1.043c0.077-1.476,2.417-2.968,4.367-3.961l0.153-0.079l-0.022,0.438
		c-0.007,0.13-0.048,0.526-0.091,0.936c-0.044,0.427-0.092,0.868-0.1,1.03c-0.028,0.555,0.138,1.064,0.456,1.398
		c0.236,0.25,0.535,0.382,0.862,0.382c1.479,0,1.586-2.067,1.622-2.747c0.065-1.252-0.044-2.03-0.103-2.449l-0.012-0.079
		l0.075-0.028c3.423-1.276,5.456-1.567,8.286-1.971c0.585-0.075,1.035-0.189,1.072-0.889c0.025-0.481-0.212-1.011-0.666-1.491
		C234.306,14.009,233.155,13.51,232.107,13.51 M232.14,14.459c-0.011,0.052-0.021,0.103-0.024,0.15
		c-0.015,0.288-0.159,0.521-0.857,0.858c-0.145,0.063-4.686,2.153-4.686,2.153l0.145-0.266c1.783-3.271,4.64-3.475,5.135-3.485
		l0.155,0.014C232.222,14.062,232.174,14.291,232.14,14.459"/>
	<path clip-path="url(#SVGID_2_)" fill="#252831" d="M250.337,23.541c-1.79-1.354-3.354-1.713-5.318-2.151l-0.095,0.158
		c0.787,0.59,2.632,1.971,3.661,4.478l0.038,0.096c0.776,1.908,0.918,2.252,1.866,2.252c1.204,0,1.585-1.12,1.62-1.781
		C252.191,24.994,250.648,23.77,250.337,23.541"/>
	<path clip-path="url(#SVGID_2_)" fill="#252831" d="M290.66,16.271l-2.292-2.01c-0.099-0.08-0.283-0.23-0.353-0.23
		c-0.019,0-0.048,0.016-0.209,0.125l-1.252,0.805h-6.136l0.36-0.272c0.996-0.754,1.62-1.31,2.122-1.757l0.513-0.429l0.26-0.033
		c1.096-0.145,1.266-0.278,1.281-0.294c-0.002-0.002-0.045-0.053-0.299-0.154l-3.523-1.445c-1.734,2.75-8.544,8.377-15.43,11.229
		c3.707-0.771,7.209-2.28,8.795-3.111l0.827-0.411c1.889-1.016,3.532-2.18,4.392-2.822h6.696l-0.24,0.344
		c-1.415,2.023-3.889,4.401-6.62,6.362l-1.408,0.955l0.214-0.771c0.051-0.185,0.045-0.388,0.04-0.604
		c-0.022-0.855-0.973-1.759-2.172-1.946c-0.101-0.021-0.749-0.115-1.381-0.115l-0.193,0.004c-0.087,0.002-0.16,0.007-0.223,0.012
		c0.505,0.665,0.699,1.126,1.064,2.043c0.318,0.773,0.819,1.278,1.34,1.353l0.933,0.293l-0.726,0.426
		c-3.305,1.936-7.438,3.472-12.016,4.473c12.334-0.761,19.6-6.644,24.072-11.094l0.414-0.133c0.788-0.251,1.357-0.434,1.413-0.492
		C290.925,16.539,290.859,16.422,290.66,16.271"/>
	<path clip-path="url(#SVGID_2_)" fill="#252831" d="M263.248,16.264c2.313-0.347,4.746-1.011,7.563-2.062
		c5.162-1.91,8.228-4.378,13.305-8.468l0.092-0.074l0.019-0.005c0.076-0.024,0.275-0.072,0.511-0.128l0.098-0.025
		c0.344-0.085,0.732-0.179,0.877-0.233c0.242-0.073,0.401-0.208,0.405-0.26c0-0.001-0.021-0.094-0.224-0.237l-2.342-1.868
		c-0.243-0.194-0.339-0.203-0.355-0.203c-0.046,0-0.054,0-0.303,0.185l-1.471,0.993h-6.559l1.904-1.72l0.179-0.037
		c0.883-0.174,0.998-0.296,1.005-0.296h0.001c0.003-0.052-0.071-0.109-0.187-0.145l-3.844-1.11
		c-0.847,1.972-4.501,6.242-10.245,10.038c2.754-1.013,5.356-2.437,6.956-3.491l0.775-0.535c1.094-0.75,2.157-1.634,2.731-2.111
		l0.123-0.093h7.125l-0.185,0.229c-1.645,2.033-4.099,4.112-5.699,5.275l-0.962,0.688l0.155-0.739
		c0.025-0.126,0.023-0.264,0.019-0.431c-0.018-0.659-0.88-1.687-1.816-1.834c-0.107-0.02-0.611-0.092-1.103-0.092
		c0,0-0.201,0.005-0.224,0.006c0.365,0.5,0.552,1.367,0.826,2.054c0.258,0.627,0.83,1.001,1.244,1.036l0.847,0.069l-0.708,0.47
		C270.917,13.005,266.652,15.082,263.248,16.264"/>
	<path clip-path="url(#SVGID_2_)" fill="#252831" d="M312.028,9.498c0.577-0.396,1.122-0.77,1.158-1.463
		c0.019-0.364-0.262-1.046-0.83-1.645c-0.539-0.569-1.5-1.246-3.011-1.246c-0.141,0-0.236,0.01-0.338,0.031
		c1.417,1.104,1.453,1.882,1.444,2.031c-0.014,0.253-0.156,0.538-0.447,0.896c-1.781,2.31-2.261,2.764-6.845,7.108l-0.459,0.435
		c-1.117,1.037-1.234,1.544-1.256,1.977c-0.055,1.043,0.874,1.96,1.063,2.136c5.05,4.988,5.826,5.755,6.907,7.467l0.165,0.265
		c1.632,2.61,1.799,2.853,2.355,2.853c0.696,0,1.159-0.878,1.204-1.727c0.025-0.471-0.091-0.93-0.354-1.4
		c-0.687-1.187-2.532-2.751-6.993-6.531l-0.778-0.659c-1.726-1.443-2.036-1.703-1.996-2.468c0.012-0.231,0.116-0.597,0.552-1.02
		C306.035,14.174,310.976,10.207,312.028,9.498"/>
	<path clip-path="url(#SVGID_2_)" fill="none" stroke="#252831" stroke-width="0.1" stroke-miterlimit="10" d="M312.028,9.498
		c0.577-0.396,1.122-0.77,1.158-1.463c0.019-0.364-0.262-1.046-0.83-1.645c-0.539-0.569-1.5-1.246-3.011-1.246
		c-0.141,0-0.236,0.01-0.338,0.031c1.417,1.104,1.453,1.882,1.444,2.031c-0.014,0.253-0.156,0.538-0.447,0.896
		c-1.781,2.31-2.261,2.764-6.845,7.108l-0.459,0.435c-1.117,1.037-1.234,1.544-1.256,1.977c-0.055,1.043,0.874,1.96,1.063,2.136
		c5.05,4.988,5.826,5.755,6.907,7.467l0.165,0.265c1.632,2.61,1.799,2.853,2.355,2.853c0.696,0,1.159-0.878,1.204-1.727
		c0.025-0.471-0.091-0.93-0.354-1.4c-0.687-1.187-2.532-2.751-6.993-6.531l-0.778-0.659c-1.726-1.443-2.036-1.703-1.996-2.468
		c0.012-0.231,0.116-0.597,0.552-1.02C306.035,14.174,310.976,10.207,312.028,9.498z"/>
	<path clip-path="url(#SVGID_2_)" fill="#252831" d="M368.466,4.711c-0.008-0.009-0.058-0.057-0.346-0.123l-4.535-0.909
		c0.145,0.656,0.268,1.669,0.099,3.594c-0.078,0.899-0.896,8.957-5.393,14.826c-2.201,2.813-4.578,5.106-6.917,6.679
		c6.58-2.396,13.972-7.358,15.335-22.975l0.018-0.204L367.1,5.49l0.59-0.229C367.894,5.173,368.437,4.941,368.466,4.711"/>
	<path clip-path="url(#SVGID_2_)" fill="#252831" d="M372.104,21.637c-2.264-2.898-3.864-7.772-4.104-12.371
		c-0.767,8.891,1.595,15.974,6.538,19.537c1.128-1.542,2.162-2.045,3.552-2.542C376.283,25.396,374.021,24.085,372.104,21.637"/>
	<path clip-path="url(#SVGID_2_)" fill="#252831" d="M409.077,18.175c-3.997-1.934-6.638-3.21-11.294-7.775
		c-0.913-0.913-1.595-1.511-2.708-1.511c-0.791,0-1.646,0.324-3.456,1.935c-1.83,1.615-4.078,3.468-5.229,3.468
		c-0.787,0-1.304-0.298-1.59-0.487c-0.122,0.218-0.164,0.337-0.175,0.533c-0.029,0.557,0.156,1.049,0.55,1.464
		c0.681,0.718,1.808,1.008,2.163,1.008c0.664,0,0.862-0.204,2.795-2.404c1.723-1.955,3.635-3.953,4.76-3.953
		c0.569,0,1.021,0.3,1.197,0.476c0.814,0.785,5.221,4.891,5.984,5.599c2.364,2.212,7.216,5.126,8.24,5.126
		c0.967,0,1.003-0.693,1.021-1.025C411.392,19.531,410.473,18.854,409.077,18.175"/>
	<path clip-path="url(#SVGID_2_)" fill="none" stroke="#252831" stroke-width="0.1" stroke-miterlimit="10" d="M409.077,18.175
		c-3.997-1.934-6.638-3.21-11.294-7.775c-0.913-0.913-1.595-1.511-2.708-1.511c-0.791,0-1.646,0.324-3.456,1.935
		c-1.83,1.615-4.078,3.468-5.229,3.468c-0.787,0-1.304-0.298-1.59-0.487c-0.122,0.218-0.164,0.337-0.175,0.533
		c-0.029,0.557,0.156,1.049,0.55,1.464c0.681,0.718,1.808,1.008,2.163,1.008c0.664,0,0.862-0.204,2.795-2.404
		c1.723-1.955,3.635-3.953,4.76-3.953c0.569,0,1.021,0.3,1.197,0.476c0.814,0.785,5.221,4.891,5.984,5.599
		c2.364,2.212,7.216,5.126,8.24,5.126c0.967,0,1.003-0.693,1.021-1.025C411.392,19.531,410.473,18.854,409.077,18.175z"/>
	<path clip-path="url(#SVGID_2_)" fill="#252831" d="M332.743,9.323c0.693,0.69,0.776,1.335,0.76,1.672
		c-0.104,2.003-2.987,6.435-3.074,6.576c-0.726,1.172-1.939,3.135-2.917,3.135c-0.271,0-0.531-0.129-0.772-0.383
		c-0.684-0.722-1.158-2.443-1.081-3.922c0.182-3.459,3.452-8.121,7.471-9.194c0.113-0.03,0.228-0.058,0.341-0.082l1.044-0.156
		l0.09-0.013c0.363-0.054,0.969-0.142,1.881-0.142c2.735,0,4.944,0.804,6.389,2.326c1.274,1.343,1.916,3.219,1.808,5.283
		c-0.243,4.629-3.54,8.118-9.8,10.371l-0.001,0.014c7.095-0.628,12.04-4.626,12.321-9.974c0.114-2.191-0.58-4.144-2.009-5.649
		c-1.867-1.966-4.938-3.095-8.425-3.095c-7.037,0-12.8,4.755-13.119,10.825c-0.055,1.066,0.313,2.498,1.121,3.167l0.089,0.075
		c0.545,0.467,0.675,0.577,1.047,1.12c0.861,1.249,1.136,1.609,1.718,1.609c0.701,0,1.662,0,5.105-5.637
		c1.823-2.966,3.186-5.451,3.203-5.788c0.022-0.424,0.503-1.704-1.7-2.157C332.798,9.01,332.743,9.323,332.743,9.323"/>
	<path clip-path="url(#SVGID_2_)" fill="none" stroke="#252831" stroke-width="0.2" stroke-miterlimit="10" d="M332.743,9.323
		c0.693,0.69,0.776,1.335,0.76,1.672c-0.104,2.003-2.987,6.435-3.074,6.576c-0.726,1.172-1.939,3.135-2.917,3.135
		c-0.271,0-0.531-0.129-0.772-0.383c-0.684-0.722-1.158-2.443-1.081-3.922c0.182-3.459,3.452-8.121,7.471-9.194
		c0.113-0.03,0.228-0.058,0.341-0.082l1.044-0.156l0.09-0.013c0.363-0.054,0.969-0.142,1.881-0.142c2.735,0,4.944,0.804,6.389,2.326
		c1.274,1.343,1.916,3.219,1.808,5.283c-0.243,4.629-3.54,8.118-9.8,10.371l-0.001,0.014c7.095-0.628,12.04-4.626,12.321-9.974
		c0.114-2.191-0.58-4.144-2.009-5.649c-1.867-1.966-4.938-3.095-8.425-3.095c-7.037,0-12.8,4.755-13.119,10.825
		c-0.055,1.066,0.313,2.498,1.121,3.167l0.089,0.075c0.545,0.467,0.675,0.577,1.047,1.12c0.861,1.249,1.136,1.609,1.718,1.609
		c0.701,0,1.662,0,5.105-5.637c1.823-2.966,3.186-5.451,3.203-5.788c0.022-0.424,0.503-1.704-1.7-2.157
		C332.798,9.01,332.743,9.323,332.743,9.323z"/>
	<path clip-path="url(#SVGID_2_)" fill="#252831" d="M176.809,6.356c0.29,0.458,0.687,1.084,1.445,1.084
		c0.122,0,0.253-0.016,0.387-0.048c0.835-0.203,1.351-1.016,1.176-1.854c-0.266-1.274-1.637-1.893-4.193-1.893
		c-0.364,0-0.741,0.012-1.126,0.034C175.354,4.212,176.206,5.39,176.809,6.356"/>
	<path clip-path="url(#SVGID_2_)" fill="#252831" d="M203.816,10.179c0.005-0.14-0.078-0.246-0.318-0.407l-2.166-1.541
		c-0.257-0.187-0.384-0.187-0.544-0.187c-0.111,0-0.243,0.031-0.467,0.26l-1.03,1.058h-2.91l0.18-5.152h7.044
		c0.335,0,0.338-0.1,0.341-0.16c0.002-0.084-0.023-0.127-0.264-0.32l-2.307-1.905c-0.141-0.111-0.378-0.295-0.479-0.295
		c-0.113,0-0.211,0.096-0.382,0.304l-1.499,2.006h-12.527c-1.569,0-3.228-0.06-4.71-0.168l0.324,0.739
		c0.689-0.119,1.461-0.201,3.725-0.201h1.972l0.206,0.046l-0.008,0.207c-0.052,1.476-0.138,3.946-0.204,4.839l-0.004,0.06h-2.249
		l-3.227-1.247c0.13,1.365,0.154,2.506,0,6.891c-0.166,4.78-0.393,9.188-0.55,11.713c-0.007,0.203-0.055,0.741-0.101,1.254
		c-0.041,0.462-0.08,0.904-0.086,1.058c-0.008,0.25-0.019,0.563,0.18,0.768c0.176,0.184,0.508,0.276,0.985,0.276
		c2.026,0,2.061-1.021,2.1-2.149l0.005-0.142h14.195l-0.024,0.176c-0.046,0.339-0.058,0.71-0.071,1.07
		c-0.017,0.489,0.044,0.778,0.198,0.938c0.157,0.163,0.454,0.235,0.962,0.235c0.756,0,2.032-0.208,2.081-1.604
		c0.036-1.051,0.083-4.007,0.127-6.847c0.041-2.628,0.081-5.157,0.11-5.989c0.03-0.858,0.055-1.913,0.078-2.823
		c0.016-0.69,0.031-1.296,0.044-1.67l0.047-0.14l0.106-0.053C203.66,10.591,203.811,10.306,203.816,10.179 M184.863,27.283
		l0.16-4.563h14.178l-0.159,4.563H184.863z M185.04,22.221l0.432-12.359h2.307l-0.013,0.208c-0.233,3.725-0.828,6.502-1.818,8.47
		c3.39-2.161,4.294-5.785,4.446-8.494l0.011-0.184h3.226l-0.028,0.754c-0.058,1.542-0.238,6.233-0.17,6.825
		c0.117,0.783,0.676,1.305,3.025,1.305c0.51,0,1.706,0,2.593-0.519l0.313-0.183l-0.145,4.176H185.04z M199.09,15.324
		c-0.293-0.51-0.438-1.107-0.508-1.615c-0.402,1.685-0.838,1.972-1.651,1.972c-0.159,0-0.389-0.018-0.541-0.176
		c-0.098-0.101-0.145-0.241-0.139-0.417c0.004-0.112,0.016-0.848,0.03-1.676c0.018-1.061,0.038-2.274,0.047-2.527l0.036-1.023h3.286
		l-0.212,6.07L199.09,15.324z M190.633,4.21h3.266l-0.215,5.152h-3.231L190.633,4.21z"/>
	<path clip-path="url(#SVGID_2_)" fill="#252831" d="M177.273,21.272c0.144-0.324,0.353-0.765,0.596-1.273
		c0.66-1.389,1.612-3.387,2.104-4.907c-1.558,2.648-2.956,4.312-4.609,5.501c-1.078,0.776-1.941,0.939-2.474,0.939
		c-0.095,0-0.168-0.005-0.257-0.011c-0.06,0-0.119,0-0.179-0.001c0.666,0.482,1.902,1.549,1.832,3.563
		c-0.008,0.238-0.139,0.865-0.279,1.53c-0.13,0.62-0.277,1.322-0.286,1.55c-0.02,0.583,0.123,1.037,0.425,1.35
		c0.445,0.461,1.116,0.497,1.311,0.497c0.95,0,2.08-0.58,2.137-2.214c0.012-0.345-0.046-1.013-0.404-2.279l-0.111-0.381
		c-0.34-1.159-0.401-1.368-0.383-1.896C176.716,22.663,176.844,22.282,177.273,21.272"/>
	<path clip-path="url(#SVGID_2_)" fill="#252831" d="M176.081,13.754c0.945,0,1.769-0.749,1.8-1.636
		c0.023-0.665-0.419-1.679-1.738-2.349c-0.772-0.389-1.041-0.455-3.711-0.84c0.795,0.729,1.682,2.269,2.034,3.16
		C174.794,13,175.143,13.754,176.081,13.754"/>
	<path clip-path="url(#SVGID_2_)" fill="#252831" d="M173.772,9.526c-0.277,0-0.352,0.003-0.654-0.014l-0.187-0.51
		c5.687,0.318,6.299-2.578,6.322-2.701l0.492,0.087C179.722,6.523,179.13,9.526,173.772,9.526"/>
</g>
</svg>
